<svg width="16" height="16" viewBox="0 0 16 16" fill="none" xmlns="http://www.w3.org/2000/svg">
<path d="M0.333997 2.97362C2.52994 4.83334 6.38313 8.10516 7.51563 9.12531C7.66766 9.263 7.83072 9.333 8 9.333C8.16894 9.333 8.33172 9.26366 8.48341 9.12663C9.61688 8.10547 13.4701 4.83334 15.666 2.97362C15.8028 2.85806 15.8236 2.65494 15.7129 2.51366C15.457 2.18719 15.0755 2 14.6667 2H1.33334C0.924497 2 0.542966 2.18719 0.287122 2.51369C0.176434 2.65494 0.197278 2.85806 0.333997 2.97362Z" fill="#FFA100"/>
<path d="M15.8067 3.98139C15.6885 3.92639 15.5495 3.94558 15.4512 4.02958C13.0159 6.09402 9.90788 8.74021 8.93 9.62136C8.38116 10.1168 7.61944 10.1168 7.06931 9.62071C6.027 8.68158 2.53675 5.71446 0.548813 4.02955C0.449844 3.94555 0.310531 3.92702 0.193344 3.98136C0.0755312 4.03608 0 4.15392 0 4.2838V12.6666C0 13.402 0.597969 14 1.33334 14H14.6667C15.402 14 16 13.402 16 12.6666V4.2838C16 4.15392 15.9245 4.03577 15.8067 3.98139Z" fill="#FFA100"/>
</svg>
