<svg width="14" height="14" viewBox="0 0 14 14" fill="none" xmlns="http://www.w3.org/2000/svg">
<path d="M9.69495 1.66114C7.48004 -0.553737 3.87609 -0.553692 1.66118 1.66114C-0.553728 3.87607 -0.553728 7.48 1.66118 9.69488C3.54023 11.5739 6.33486 11.8585 8.51717 10.5494C8.51717 10.5494 8.67493 10.4554 8.80184 10.5824C9.52633 11.3069 11.7001 13.4807 11.7001 13.4807C12.2769 14.0575 13.0836 14.1949 13.5952 13.6833L13.6832 13.5952C14.1949 13.0836 14.0576 12.277 13.4807 11.7001C13.4807 11.7001 11.3115 9.53099 10.5885 8.80794C10.4554 8.67485 10.5495 8.51713 10.5495 8.51713C11.8585 6.33486 11.574 3.54021 9.69495 1.66114ZM8.64615 8.64612C7.00956 10.2827 4.34667 10.2827 2.71008 8.64607C1.07353 7.00947 1.07348 4.34656 2.71008 2.71C4.34662 1.0734 7.00956 1.0734 8.64615 2.71C10.2827 4.3466 10.2827 7.00947 8.64615 8.64612Z" fill="#FFA100"/>
<path d="M5.34093 8.28366C5.34093 8.35983 5.32596 8.43727 5.29443 8.51191C5.16824 8.81007 4.82422 8.94956 4.52602 8.82337C2.6517 8.03024 1.77211 5.86014 2.56524 3.98586C2.69143 3.6877 3.03546 3.5482 3.33366 3.6744C3.63186 3.80063 3.77127 4.14457 3.64512 4.44286C3.10401 5.72164 3.70416 7.20238 4.98293 7.74344C5.20658 7.83811 5.34093 8.05522 5.34093 8.28366Z" fill="#FFA100"/>
</svg>
