<svg width="16" height="16" viewBox="0 0 16 16" fill="none" xmlns="http://www.w3.org/2000/svg">
<g clip-path="url(#clip0_56_537)">
<path d="M12.1643 10.5843C11.6416 10.0683 10.989 10.0683 10.4696 10.5843C10.0734 10.9772 9.67718 11.3701 9.28763 11.7696C9.18109 11.8795 9.09119 11.9028 8.96134 11.8295C8.70498 11.6897 8.43196 11.5765 8.18558 11.4234C7.03692 10.7009 6.07471 9.77194 5.22237 8.7265C4.79953 8.2071 4.42331 7.65108 4.16028 7.02515C4.10701 6.89863 4.117 6.81539 4.22021 6.71218C4.61641 6.32929 5.00263 5.93642 5.39218 5.54354C5.93488 4.99751 5.93488 4.35826 5.38885 3.8089C5.07921 3.49593 4.76957 3.18962 4.45993 2.87665C4.1403 2.55703 3.82401 2.23407 3.50105 1.91777C2.97833 1.40837 2.32575 1.40837 1.80636 1.9211C1.40683 2.31398 1.02394 2.71684 0.617746 3.10306C0.241518 3.45931 0.0517393 3.89547 0.011786 4.40487C-0.0514736 5.2339 0.151623 6.01632 0.437955 6.77877C1.02394 8.35693 1.91623 9.75863 2.9983 11.0438C4.45993 12.7818 6.20456 14.1568 8.24551 15.149C9.16444 15.5951 10.1167 15.9381 11.1521 15.9947C11.8646 16.0346 12.4839 15.8548 12.98 15.2988C13.3196 14.9193 13.7025 14.573 14.0621 14.2101C14.5948 13.6707 14.5981 13.0182 14.0687 12.4854C13.4361 11.8495 12.8002 11.2169 12.1643 10.5843Z" fill="#FFA100"/>
<path d="M11.5283 7.93077L12.7569 7.72101C12.5638 6.59233 12.0311 5.57019 11.222 4.7578C10.3664 3.90213 9.2843 3.36276 8.09236 3.19629L7.91922 4.43151C8.84148 4.56136 9.6805 4.97754 10.3431 5.6401C10.969 6.26604 11.3785 7.05845 11.5283 7.93077Z" fill="#FFA100"/>
<path d="M13.4494 2.59031C12.0311 1.17197 10.2365 0.276344 8.2555 0L8.08237 1.23523C9.79371 1.47495 11.3452 2.25071 12.5705 3.47262C13.7324 4.63459 14.4949 6.10288 14.7712 7.71766L15.9998 7.50791C15.6768 5.63676 14.7945 3.93874 13.4494 2.59031Z" fill="#FFA100"/>
</g>
<defs>
<clipPath id="clip0_56_537">
<rect width="16" height="16" fill="white"/>
</clipPath>
</defs>
</svg>
